<svg width="64" height="64" viewBox="0 0 64 64" fill="none" xmlns="http://www.w3.org/2000/svg">
<path d="M37.5167 37.0479L37.5229 37.0396C37.3303 37.5951 36.9672 38.0755 36.4854 38.4125C35.925 38.8062 35.1375 39.1167 34.0104 39.1708L29.8646 39.1792V33.075C30.4646 33.0917 33.125 33.0479 34.2792 33.1062C35.7833 33.1792 36.7187 33.775 37.2167 34.4979C37.7625 35.2292 37.8271 36.2062 37.5167 37.0479ZM33.0812 30.2542C34.1292 30.2042 34.8562 29.9167 35.375 29.5542C35.8208 29.25 36.1562 28.7896 36.3333 28.2812C36.6125 27.5 36.5562 26.5937 36.05 25.9167C35.5854 25.2521 34.7208 24.7 33.3292 24.6333C32.2979 24.5792 30.3854 24.6271 29.8625 24.6125V30.2562C29.9146 30.2646 33.0687 30.2542 33.0812 30.2542ZM57 32C57 45.8062 45.8062 57 32 57C18.1938 57 7 45.8062 7 32C7 18.1938 18.1938 7 32 7C45.8062 7 57 18.1938 57 32ZM43.1458 36.4625C43.1917 33.3854 40.5625 31.6042 39.1708 31.1042C40.6604 30.0812 41.6833 28.9312 41.6833 26.7604C41.6833 23.3125 38.2542 21.6979 36.1687 21.4917C35.9979 21.4729 35.5229 21.4646 35.5229 21.4646V18.1687H32.1208L32.1292 21.4667H29.8542V18.1812H26.3958V21.45C25.7875 21.4646 22.1271 21.4625 22.1271 21.4625V24.3813H23.3167C24.5687 24.4146 25.0292 25.1354 24.9792 25.7917V38.3771C24.9714 38.5836 24.8886 38.7802 24.7464 38.9302C24.6041 39.0801 24.4121 39.1731 24.2062 39.1917C23.6875 39.2146 22.9125 39.1917 22.9125 39.1917L22.2458 42.5H26.4042V45.8333H29.8646V42.5187H32.1375V45.8396H35.5208V42.5312C39.4771 42.6354 43.1104 40.3 43.1458 36.4625Z" fill="black"/>
</svg>
